PathFileType	4	(X/Y/Z)	C:\Users\italobelli\Desktop\GitHub\PTbot_officialCBL\Personal_Results\ABD03_noisy1.trc
DataRate	CameraRate	NumFrames	NumMarkers	Units	OrigDataRate	OrigDataStartFrame	OrigNumFrames
106.533333	106.533333	38	9	m	106.533333	501	800
Frame#	Time		gu		centelbow		EpL		centpxt8		centijc7		ij		ts		aa		ai
			X1	Y1	Z1	X2	Y2	Z2	X3	Y3	Z3	X4	Y4	Z4	X5	Y5	Z5	X6	Y6	Z6	X7	Y7	Z7	X8	Y8	Z8	X9	Y9	Z9

501	4.6934	-0.12043	0.066928	0.1048	-0.15075	0.22242	0.29184	-0.16806	0.23934	0.27064	-0.046816	-0.15316	-0.008669	-0.046816	0.031938	-0.008669	0	0	0	-0.1272	-0.013864	0.029019	-0.16317	0.075096	0.098484	-0.13583	-0.080284	0.11858
502	4.7028	-0.12039	0.066798	0.10506	-0.15129	0.22004	0.29375	-0.16869	0.23712	0.27277	-0.046816	-0.15316	-0.008669	-0.046816	0.031938	-0.008669	0	0	0	-0.12699	-0.013423	0.028635	-0.16306	0.074846	0.098831	-0.13515	-0.080568	0.11766
503	4.7121	-0.12036	0.066663	0.10533	-0.15182	0.21761	0.29566	-0.1693	0.23485	0.27492	-0.046816	-0.15316	-0.008669	-0.046816	0.031938	-0.008669	0	0	0	-0.12678	-0.012973	0.028249	-0.16295	0.074595	0.099184	-0.13445	-0.080849	0.11672
504	4.7215	-0.12031	0.066524	0.1056	-0.15233	0.21514	0.29758	-0.16991	0.23254	0.27707	-0.046816	-0.15316	-0.008669	-0.046816	0.031938	-0.008669	0	0	0	-0.12657	-0.012514	0.027863	-0.16283	0.074344	0.099543	-0.13374	-0.081128	0.11578
505	4.7309	-0.12027	0.066379	0.10588	-0.15283	0.21263	0.2995	-0.1705	0.23018	0.27922	-0.046816	-0.15316	-0.008669	-0.046816	0.031938	-0.008669	0	0	0	-0.12637	-0.012046	0.027476	-0.16272	0.074091	0.099906	-0.13303	-0.081404	0.11483
506	4.7403	-0.12023	0.066231	0.10616	-0.15332	0.21007	0.30142	-0.17107	0.22778	0.28138	-0.046816	-0.15316	-0.008669	-0.046816	0.031938	-0.008669	0	0	0	-0.12616	-0.011571	0.027089	-0.1626	0.073838	0.10027	-0.1323	-0.081676	0.11388
507	4.7497	-0.12019	0.066078	0.10645	-0.15379	0.20748	0.30333	-0.17163	0.22535	0.28353	-0.046816	-0.15316	-0.008669	-0.046816	0.031938	-0.008669	0	0	0	-0.12596	-0.011089	0.026703	-0.16248	0.073584	0.10065	-0.13157	-0.081945	0.11293
508	4.7591	-0.12015	0.065922	0.10674	-0.15424	0.20485	0.30524	-0.17217	0.22287	0.28568	-0.046816	-0.15316	-0.008669	-0.046816	0.031938	-0.008669	0	0	0	-0.12576	-0.010602	0.026319	-0.16235	0.07333	0.10102	-0.13083	-0.082209	0.11198
509	4.7685	-0.1201	0.065762	0.10704	-0.15468	0.20218	0.30714	-0.17269	0.22036	0.28783	-0.046816	-0.15316	-0.008669	-0.046816	0.031938	-0.008669	0	0	0	-0.12556	-0.010111	0.025936	-0.16223	0.073075	0.1014	-0.13009	-0.082469	0.11102
510	4.7778	-0.12006	0.065598	0.10734	-0.1551	0.19947	0.30903	-0.1732	0.21781	0.28996	-0.046816	-0.15316	-0.008669	-0.046816	0.031938	-0.008669	0	0	0	-0.12536	-0.0096152	0.025555	-0.1621	0.07282	0.10178	-0.12934	-0.082724	0.11007
511	4.7872	-0.12002	0.065431	0.10765	-0.1555	0.19674	0.31091	-0.17369	0.21523	0.29209	-0.046816	-0.15316	-0.008669	-0.046816	0.031938	-0.008669	0	0	0	-0.12516	-0.0091169	0.025177	-0.16197	0.072565	0.10217	-0.1286	-0.082974	0.10911
512	4.7966	-0.11997	0.065261	0.10796	-0.15589	0.19397	0.31278	-0.17415	0.21262	0.2942	-0.046816	-0.15316	-0.008669	-0.046816	0.031938	-0.008669	0	0	0	-0.12497	-0.0086167	0.024802	-0.16184	0.072309	0.10256	-0.12785	-0.083218	0.10817
513	4.806	-0.11993	0.065089	0.10828	-0.15625	0.19117	0.31463	-0.1746	0.20998	0.2963	-0.046816	-0.15316	-0.008669	-0.046816	0.031938	-0.008669	0	0	0	-0.12477	-0.0081154	0.024432	-0.16171	0.072054	0.10294	-0.12711	-0.083455	0.10722
514	4.8154	-0.11988	0.064914	0.1086	-0.1566	0.18835	0.31647	-0.17503	0.2073	0.29838	-0.046816	-0.15316	-0.008669	-0.046816	0.031938	-0.008669	0	0	0	-0.12458	-0.0076139	0.024066	-0.16158	0.071798	0.10333	-0.12637	-0.083687	0.10628
515	4.8248	-0.11984	0.064736	0.10893	-0.15692	0.1855	0.31829	-0.17543	0.2046	0.30044	-0.046816	-0.15316	-0.008669	-0.046816	0.031938	-0.008669	0	0	0	-0.12439	-0.0071132	0.023705	-0.16144	0.071543	0.10372	-0.12563	-0.083911	0.10535
516	4.8342	-0.1198	0.064557	0.10926	-0.15723	0.18262	0.32008	-0.17582	0.20188	0.30248	-0.046816	-0.15316	-0.008669	-0.046816	0.031938	-0.008669	0	0	0	-0.1242	-0.0066141	0.023349	-0.16131	0.071288	0.10411	-0.1249	-0.084128	0.10443
517	4.8436	-0.11975	0.064375	0.10959	-0.15751	0.17972	0.32186	-0.17617	0.19913	0.30449	-0.046816	-0.15316	-0.008669	-0.046816	0.031938	-0.008669	0	0	0	-0.12402	-0.0061175	0.023	-0.16118	0.071033	0.1045	-0.12418	-0.084337	0.10351
518	4.8529	-0.11971	0.064192	0.10993	-0.15777	0.1768	0.32361	-0.17651	0.19635	0.30648	-0.046816	-0.15316	-0.008669	-0.046816	0.031938	-0.008669	0	0	0	-0.12383	-0.0056243	0.022657	-0.16104	0.070779	0.10488	-0.12347	-0.084538	0.10261
519	4.8623	-0.11967	0.064008	0.11027	-0.15801	0.17386	0.32533	-0.17682	0.19356	0.30844	-0.046816	-0.15316	-0.008669	-0.046816	0.031938	-0.008669	0	0	0	-0.12365	-0.0051355	0.022321	-0.16091	0.070525	0.10527	-0.12276	-0.084731	0.10172
520	4.8717	-0.11963	0.063822	0.11061	-0.15823	0.1709	0.32703	-0.17711	0.19074	0.31037	-0.046816	-0.15316	-0.008669	-0.046816	0.031938	-0.008669	0	0	0	-0.12347	-0.0046518	0.021993	-0.16078	0.070272	0.10565	-0.12207	-0.084915	0.10084
521	4.8811	-0.11959	0.063635	0.11096	-0.15842	0.16793	0.32869	-0.17737	0.18791	0.31226	-0.046816	-0.15316	-0.008669	-0.046816	0.031938	-0.008669	0	0	0	-0.12329	-0.0041743	0.021674	-0.16065	0.070019	0.10603	-0.12139	-0.085089	0.099978
522	4.8905	-0.11955	0.063447	0.11131	-0.15858	0.16494	0.33033	-0.1776	0.18506	0.31412	-0.046816	-0.15316	-0.008669	-0.046816	0.031938	-0.008669	0	0	0	-0.12312	-0.0037037	0.021363	-0.16052	0.069767	0.10641	-0.12072	-0.085254	0.09913
523	4.8999	-0.11951	0.063259	0.11166	-0.15872	0.16194	0.33193	-0.1778	0.18219	0.31595	-0.046816	-0.15316	-0.008669	-0.046816	0.031938	-0.008669	0	0	0	-0.12294	-0.003241	0.021062	-0.16039	0.069517	0.10679	-0.12007	-0.085409	0.098299
524	4.9093	-0.11947	0.06307	0.11202	-0.15884	0.15892	0.33349	-0.17798	0.17931	0.31773	-0.046816	-0.15316	-0.008669	-0.046816	0.031938	-0.008669	0	0	0	-0.12277	-0.0027872	0.02077	-0.16026	0.069267	0.10716	-0.11944	-0.085554	0.097486
525	4.9186	-0.11943	0.062881	0.11238	-0.15893	0.1559	0.33502	-0.17813	0.17642	0.31947	-0.046816	-0.15316	-0.008669	-0.046816	0.031938	-0.008669	0	0	0	-0.12261	-0.002343	0.020489	-0.16013	0.069018	0.10752	-0.11883	-0.085688	0.096692
526	4.928	-0.1194	0.062693	0.11274	-0.15899	0.15287	0.3365	-0.17825	0.17351	0.32117	-0.046816	-0.15316	-0.008669	-0.046816	0.031938	-0.008669	0	0	0	-0.12244	-0.0019093	0.020219	-0.16	0.06877	0.10789	-0.11823	-0.08581	0.095919
527	4.9374	-0.11936	0.062504	0.11311	-0.15903	0.14984	0.33795	-0.17833	0.1706	0.32282	-0.046816	-0.15316	-0.008669	-0.046816	0.031938	-0.008669	0	0	0	-0.12228	-0.0014872	0.019961	-0.15988	0.068524	0.10824	-0.11766	-0.085921	0.095167
528	4.9468	-0.11933	0.062316	0.11347	-0.15903	0.1468	0.33935	-0.17839	0.16768	0.32442	-0.046816	-0.15316	-0.008669	-0.046816	0.031938	-0.008669	0	0	0	-0.12212	-0.0010774	0.019714	-0.15976	0.068279	0.10859	-0.11711	-0.08602	0.094439
529	4.9562	-0.1193	0.062129	0.11384	-0.15901	0.14375	0.3407	-0.17842	0.16475	0.32596	-0.046816	-0.15316	-0.008669	-0.046816	0.031938	-0.008669	0	0	0	-0.12196	-0.00068085	0.019481	-0.15964	0.068036	0.10894	-0.11658	-0.086106	0.093735
530	4.9656	-0.11927	0.061942	0.11421	-0.15896	0.14071	0.34201	-0.17841	0.16182	0.32746	-0.046816	-0.15316	-0.008669	-0.046816	0.031938	-0.008669	0	0	0	-0.12181	-0.00029847	0.01926	-0.15952	0.067794	0.10928	-0.11608	-0.08618	0.093056
531	4.975	-0.11924	0.061757	0.11459	-0.15888	0.13766	0.34327	-0.17837	0.15888	0.3289	-0.046816	-0.15316	-0.008669	-0.046816	0.031938	-0.008669	0	0	0	-0.12166	6.8854e-05	0.019053	-0.15941	0.067554	0.10961	-0.1156	-0.086241	0.092404
532	4.9844	-0.11921	0.061573	0.11496	-0.15877	0.13462	0.34448	-0.17829	0.15594	0.33028	-0.046816	-0.15316	-0.008669	-0.046816	0.031938	-0.008669	0	0	0	-0.12151	0.00042023	0.018861	-0.1593	0.067315	0.10993	-0.11516	-0.086288	0.09178
533	4.9937	-0.11919	0.061391	0.11534	-0.15862	0.13158	0.34564	-0.17818	0.15301	0.3316	-0.046816	-0.15316	-0.008669	-0.046816	0.031938	-0.008669	0	0	0	-0.12136	0.00075477	0.018683	-0.15919	0.067079	0.11024	-0.11474	-0.086321	0.091186
534	5.0031	-0.11916	0.061209	0.11572	-0.15845	0.12854	0.34674	-0.17804	0.15007	0.33287	-0.046816	-0.15316	-0.008669	-0.046816	0.031938	-0.008669	0	0	0	-0.12122	0.0010726	0.01852	-0.15909	0.066844	0.11055	-0.11435	-0.08634	0.09062
535	5.0125	-0.11914	0.06102	0.11611	-0.15826	0.12544	0.34782	-0.17788	0.14706	0.33411	-0.046816	-0.15316	-0.008669	-0.046816	0.031938	-0.008669	0	0	0	-0.12108	0.0013859	0.018366	-0.15898	0.066612	0.11085	-0.11397	-0.086355	0.090066
536	5.0219	-0.11912	0.060821	0.11651	-0.15805	0.12226	0.34886	-0.17772	0.14396	0.33535	-0.046816	-0.15316	-0.008669	-0.046816	0.031938	-0.008669	0	0	0	-0.12094	0.0016987	0.018219	-0.15888	0.066383	0.11115	-0.11359	-0.086368	0.089518
537	5.0313	-0.1191	0.060612	0.11693	-0.15782	0.119	0.34989	-0.17755	0.14078	0.33657	-0.046816	-0.15316	-0.008669	-0.046816	0.031938	-0.008669	0	0	0	-0.1208	0.0020108	0.018079	-0.15877	0.066156	0.11145	-0.11321	-0.08638	0.088976
538	5.0407	-0.11908	0.060393	0.11736	-0.15759	0.11567	0.35088	-0.17738	0.13752	0.33779	-0.046816	-0.15316	-0.008669	-0.046816	0.031938	-0.008669	0	0	0	-0.12066	0.0023223	0.017946	-0.15867	0.065931	0.11174	-0.11283	-0.08639	0.08844
